<?xml version="1.0" encoding="UTF-8"?>
<svg xmlns="http://www.w3.org/2000/svg" xmlns:xlink="http://www.w3.org/1999/xlink" width="850.394pt" height="850.394pt" viewBox="0 0 850.394 850.394" version="1.1">
<g id="surface1">
<path style=" stroke:none;fill-rule:nonzero;fill:rgb(13.729858%,12.159729%,12.548828%);fill-opacity:1;" d="M 263.078125 617.332031 C 260.414062 631.507812 249.09375 637.976562 234.351562 637.976562 C 211.425781 637.976562 200.394531 622.566406 200.394531 603.730469 C 200.394531 584.425781 211.90625 569.964844 233.496094 569.964844 C 247.859375 569.964844 260.125 576.242188 262.222656 590.890625 L 252.710938 590.890625 C 251.375 580.140625 244.050781 573.390625 233.113281 573.390625 C 216.851562 573.390625 210.285156 588.703125 210.285156 603.824219 C 210.285156 619.898438 217.898438 634.550781 233.683594 634.550781 C 243.863281 634.550781 251.757812 628.75 253.566406 617.332031 Z M 263.078125 617.332031 "/>
<path style=" stroke:none;fill-rule:nonzero;fill:rgb(13.729858%,12.159729%,12.548828%);fill-opacity:1;" d="M 276.960938 570.632812 L 324.042969 570.632812 L 324.042969 574.339844 L 286.472656 574.339844 L 286.472656 601.355469 L 321.191406 601.355469 L 321.191406 605.0625 L 286.472656 605.0625 L 286.472656 633.5 L 325 633.5 L 325 637.214844 L 276.960938 637.214844 Z M 276.960938 570.632812 "/>
<path style=" stroke:none;fill-rule:nonzero;fill:rgb(13.729858%,12.159729%,12.548828%);fill-opacity:1;" d="M 332.03125 570.632812 L 390.433594 570.632812 L 390.433594 574.339844 L 365.988281 574.339844 L 365.988281 637.214844 L 356.476562 637.214844 L 356.476562 574.339844 L 332.03125 574.339844 Z M 332.03125 570.632812 "/>
<path style=" stroke:none;fill-rule:nonzero;fill:rgb(13.729858%,12.159729%,12.548828%);fill-opacity:1;" d="M 411.261719 574.339844 L 411.261719 604.015625 L 422.390625 604.015625 C 432.660156 604.015625 439.226562 598.882812 439.226562 589.273438 C 439.226562 579.667969 432.660156 574.339844 422.292969 574.339844 Z M 401.75 570.632812 L 424.671875 570.632812 C 439.320312 570.632812 449.117188 577.574219 449.117188 589.179688 C 449.117188 598.691406 442.746094 604.96875 432.566406 606.964844 L 452.730469 637.214844 L 442.460938 637.214844 L 422.769531 607.726562 L 411.261719 607.726562 L 411.261719 637.214844 L 401.75 637.214844 Z M 401.75 570.632812 "/>
<path style=" stroke:none;fill-rule:nonzero;fill:rgb(13.729858%,12.159729%,12.548828%);fill-opacity:1;" d="M 465.285156 570.632812 L 512.367188 570.632812 L 512.367188 574.339844 L 474.796875 574.339844 L 474.796875 601.355469 L 509.515625 601.355469 L 509.515625 605.0625 L 474.796875 605.0625 L 474.796875 633.5 L 513.320312 633.5 L 513.320312 637.214844 L 465.285156 637.214844 Z M 465.285156 570.632812 "/>
<path style=" stroke:none;fill-rule:nonzero;fill:rgb(13.729858%,12.159729%,12.548828%);fill-opacity:1;" d="M 537.003906 604.585938 L 537.003906 633.5 L 551.652344 633.5 C 562.019531 633.5 568.582031 628.367188 568.582031 619.140625 C 568.582031 609.917969 561.925781 604.585938 551.652344 604.585938 Z M 537.003906 574.339844 L 537.003906 600.875 L 548.894531 600.875 C 558.882812 600.875 565.253906 596.40625 565.253906 587.65625 C 565.253906 579 558.882812 574.339844 548.800781 574.339844 Z M 527.492188 570.632812 L 551.839844 570.632812 C 566.109375 570.632812 574.574219 576.71875 574.574219 587.183594 C 574.574219 594.984375 569.820312 600.308594 561.449219 602.492188 C 572.007812 604.300781 578.378906 610.484375 578.378906 619.617188 C 578.378906 630.554688 569.441406 637.214844 554.789062 637.214844 L 527.492188 637.214844 Z M 527.492188 570.632812 "/>
<path style=" stroke:none;fill-rule:nonzero;fill:rgb(13.729858%,12.159729%,12.548828%);fill-opacity:1;" d="M 599.777344 613.625 L 628.597656 613.625 L 614.140625 581.566406 Z M 630.214844 617.332031 L 598.066406 617.332031 L 589.21875 637.214844 L 584.371094 637.214844 L 613.667969 570.632812 L 618.894531 570.632812 L 650 637.214844 L 639.25 637.214844 Z M 630.214844 617.332031 "/>
<path style=" stroke:none;fill-rule:nonzero;fill:rgb(13.729858%,12.159729%,12.548828%);fill-opacity:1;" d="M 475.707031 285.054688 L 471.964844 281.296875 C 469.890625 279.222656 469.890625 275.871094 471.964844 273.8125 L 475.613281 270.148438 C 477.6875 268.089844 477.6875 264.726562 475.613281 262.664062 L 471.824219 258.878906 C 469.765625 256.800781 466.398438 256.800781 464.339844 258.878906 L 438.164062 285.054688 C 436.101562 287.113281 432.738281 287.113281 430.679688 285.054688 L 426.921875 281.296875 C 424.847656 279.222656 424.847656 275.871094 426.921875 273.8125 L 441.921875 258.8125 C 443.980469 256.738281 443.980469 253.390625 441.921875 251.316406 L 426.953125 236.363281 C 424.894531 234.289062 424.894531 230.941406 426.953125 228.863281 L 430.648438 225.183594 C 432.707031 223.109375 432.707031 219.761719 430.648438 217.6875 L 426.921875 213.976562 C 425.886719 212.9375 424.546875 212.417969 423.195312 212.417969 C 421.84375 212.417969 420.507812 212.9375 419.46875 213.976562 L 415.742188 217.6875 C 413.683594 219.761719 413.683594 223.109375 415.742188 225.183594 L 419.4375 228.863281 C 421.5 230.941406 421.5 234.289062 419.4375 236.363281 L 404.472656 251.316406 C 402.414062 253.390625 402.414062 256.738281 404.472656 258.8125 L 419.46875 273.8125 C 421.546875 275.871094 421.546875 279.222656 419.46875 281.296875 L 415.714844 285.054688 C 413.652344 287.113281 410.289062 287.113281 408.230469 285.054688 L 382.054688 258.878906 C 379.992188 256.800781 376.628906 256.800781 374.570312 258.878906 L 370.78125 262.664062 C 368.703125 264.726562 368.703125 268.089844 370.78125 270.148438 L 374.429688 273.8125 C 376.503906 275.871094 376.503906 279.222656 374.429688 281.296875 L 370.6875 285.054688 C 368.609375 287.113281 368.609375 290.476562 370.6875 292.535156 L 396.957031 318.808594 C 399.015625 320.882812 402.382812 320.882812 404.441406 318.808594 L 408.199219 315.050781 C 410.257812 312.992188 413.621094 312.992188 415.683594 315.050781 L 419.46875 318.839844 C 420.507812 319.878906 421.84375 320.394531 423.195312 320.394531 C 424.546875 320.394531 425.886719 319.878906 426.921875 318.839844 L 430.710938 315.050781 C 432.769531 312.992188 436.136719 312.992188 438.195312 315.050781 L 441.953125 318.808594 C 444.011719 320.882812 447.375 320.882812 449.4375 318.808594 L 475.707031 292.535156 C 477.78125 290.476562 477.78125 287.113281 475.707031 285.054688 "/>
<path style=" stroke:none;fill-rule:nonzero;fill:rgb(13.729858%,12.159729%,12.548828%);fill-opacity:1;" d="M 370.6875 450.398438 L 374.429688 454.15625 C 376.503906 456.230469 376.503906 459.578125 374.429688 461.636719 L 370.78125 465.300781 C 368.703125 467.359375 368.703125 470.726562 370.78125 472.785156 L 374.570312 476.574219 C 376.628906 478.648438 379.992188 478.648438 382.054688 476.574219 L 408.230469 450.398438 C 410.289062 448.335938 413.652344 448.335938 415.714844 450.398438 L 419.46875 454.15625 C 421.546875 456.230469 421.546875 459.578125 419.46875 461.636719 L 404.472656 476.636719 C 402.414062 478.710938 402.414062 482.0625 404.472656 484.136719 L 419.4375 499.085938 C 421.5 501.164062 421.5 504.511719 419.4375 506.585938 L 415.742188 510.265625 C 413.683594 512.339844 413.683594 515.6875 415.742188 517.765625 L 419.46875 521.476562 C 420.507812 522.511719 421.84375 523.03125 423.195312 523.03125 C 424.546875 523.03125 425.886719 522.511719 426.921875 521.476562 L 430.648438 517.765625 C 432.707031 515.6875 432.707031 512.339844 430.648438 510.265625 L 426.953125 506.585938 C 424.894531 504.511719 424.894531 501.164062 426.953125 499.085938 L 441.921875 484.136719 C 443.980469 482.0625 443.980469 478.710938 441.921875 476.636719 L 426.921875 461.636719 C 424.847656 459.578125 424.847656 456.230469 426.921875 454.15625 L 430.679688 450.398438 C 432.738281 448.335938 436.101562 448.335938 438.164062 450.398438 L 464.339844 476.574219 C 466.398438 478.648438 469.765625 478.648438 471.824219 476.574219 L 475.613281 472.785156 C 477.6875 470.726562 477.6875 467.359375 475.613281 465.300781 L 471.964844 461.636719 C 469.890625 459.578125 469.890625 456.230469 471.964844 454.15625 L 475.707031 450.398438 C 477.78125 448.335938 477.78125 444.972656 475.707031 442.914062 L 449.4375 416.644531 C 447.375 414.566406 444.011719 414.566406 441.953125 416.644531 L 438.195312 420.398438 C 436.136719 422.460938 432.769531 422.460938 430.710938 420.398438 L 426.921875 416.609375 C 425.886719 415.574219 424.546875 415.054688 423.195312 415.054688 C 421.84375 415.054688 420.507812 415.574219 419.46875 416.609375 L 415.683594 420.398438 C 413.621094 422.460938 410.257812 422.460938 408.199219 420.398438 L 404.441406 416.644531 C 402.382812 414.566406 399.015625 414.566406 396.957031 416.644531 L 370.6875 442.914062 C 368.609375 444.972656 368.609375 448.335938 370.6875 450.398438 "/>
<path style=" stroke:none;fill-rule:nonzero;fill:rgb(13.729858%,12.159729%,12.548828%);fill-opacity:1;" d="M 340.527344 315.214844 L 336.769531 318.957031 C 334.695312 321.03125 331.347656 321.03125 329.289062 318.957031 L 325.625 315.308594 C 323.5625 313.234375 320.199219 313.234375 318.140625 315.308594 L 314.351562 319.097656 C 312.277344 321.15625 312.277344 324.523438 314.351562 326.582031 L 340.527344 352.757812 C 342.589844 354.816406 342.589844 358.183594 340.527344 360.242188 L 336.769531 364 C 334.695312 366.074219 331.347656 366.074219 329.289062 364 L 314.289062 349 C 312.214844 346.941406 308.863281 346.941406 306.789062 349 L 291.839844 363.96875 C 289.761719 366.027344 286.414062 366.027344 284.339844 363.96875 L 280.660156 360.273438 C 278.585938 358.214844 275.234375 358.214844 273.160156 360.273438 L 269.449219 364 C 268.414062 365.035156 267.894531 366.375 267.894531 367.726562 C 267.894531 369.078125 268.414062 370.414062 269.449219 371.453125 L 273.160156 375.175781 C 275.234375 377.238281 278.585938 377.238281 280.660156 375.175781 L 284.339844 371.484375 C 286.414062 369.421875 289.761719 369.421875 291.839844 371.484375 L 306.789062 386.449219 C 308.863281 388.507812 312.214844 388.507812 314.289062 386.449219 L 329.289062 371.453125 C 331.347656 369.375 334.695312 369.375 336.769531 371.453125 L 340.527344 375.207031 C 342.589844 377.269531 342.589844 380.632812 340.527344 382.691406 L 314.351562 408.867188 C 312.277344 410.929688 312.277344 414.292969 314.351562 416.351562 L 318.140625 420.140625 C 320.199219 422.214844 323.5625 422.214844 325.625 420.140625 L 329.289062 416.492188 C 331.347656 414.417969 334.695312 414.417969 336.769531 416.492188 L 340.527344 420.234375 C 342.589844 422.3125 345.953125 422.3125 348.011719 420.234375 L 374.28125 393.964844 C 376.359375 391.90625 376.359375 388.539062 374.28125 386.480469 L 370.523438 382.722656 C 368.464844 380.664062 368.464844 377.300781 370.523438 375.238281 L 374.3125 371.453125 C 375.351562 370.414062 375.871094 369.078125 375.871094 367.726562 C 375.871094 366.375 375.351562 365.035156 374.3125 364 L 370.523438 360.210938 C 368.464844 358.152344 368.464844 354.785156 370.523438 352.726562 L 374.28125 348.96875 C 376.359375 346.910156 376.359375 343.546875 374.28125 341.484375 L 348.011719 315.214844 C 345.953125 313.140625 342.589844 313.140625 340.527344 315.214844 "/>
<path style=" stroke:none;fill-rule:nonzero;fill:rgb(13.729858%,12.159729%,12.548828%);fill-opacity:1;" d="M 505.871094 420.234375 L 509.628906 416.492188 C 511.703125 414.417969 515.054688 414.417969 517.113281 416.492188 L 520.773438 420.140625 C 522.835938 422.214844 526.199219 422.214844 528.257812 420.140625 L 532.046875 416.351562 C 534.125 414.292969 534.125 410.929688 532.046875 408.867188 L 505.871094 382.691406 C 503.8125 380.632812 503.8125 377.269531 505.871094 375.207031 L 509.628906 371.453125 C 511.703125 369.375 515.054688 369.375 517.113281 371.453125 L 532.109375 386.449219 C 534.1875 388.507812 537.535156 388.507812 539.609375 386.449219 L 554.5625 371.484375 C 556.636719 369.421875 559.984375 369.421875 562.058594 371.484375 L 565.738281 375.175781 C 567.816406 377.238281 571.164062 377.238281 573.238281 375.175781 L 576.949219 371.453125 C 577.988281 370.414062 578.507812 369.078125 578.507812 367.726562 C 578.507812 366.375 577.988281 365.035156 576.949219 364 L 573.238281 360.273438 C 571.164062 358.214844 567.816406 358.214844 565.738281 360.273438 L 562.058594 363.96875 C 559.984375 366.027344 556.636719 366.027344 554.5625 363.96875 L 539.609375 349 C 537.535156 346.941406 534.1875 346.941406 532.109375 349 L 517.113281 364 C 515.054688 366.074219 511.703125 366.074219 509.628906 364 L 505.871094 360.242188 C 503.8125 358.183594 503.8125 354.816406 505.871094 352.757812 L 532.046875 326.582031 C 534.125 324.523438 534.125 321.15625 532.046875 319.097656 L 528.257812 315.308594 C 526.199219 313.234375 522.835938 313.234375 520.773438 315.308594 L 517.113281 318.957031 C 515.054688 321.03125 511.703125 321.03125 509.628906 318.957031 L 505.871094 315.214844 C 503.8125 313.140625 500.445312 313.140625 498.386719 315.214844 L 472.117188 341.484375 C 470.042969 343.546875 470.042969 346.910156 472.117188 348.96875 L 475.875 352.726562 C 477.933594 354.785156 477.933594 358.152344 475.875 360.210938 L 472.085938 364 C 471.046875 365.035156 470.527344 366.375 470.527344 367.726562 C 470.527344 369.078125 471.046875 370.414062 472.085938 371.453125 L 475.875 375.238281 C 477.933594 377.300781 477.933594 380.664062 475.875 382.722656 L 472.117188 386.480469 C 470.042969 388.539062 470.042969 391.90625 472.117188 393.964844 L 498.386719 420.234375 C 500.445312 422.3125 503.8125 422.3125 505.871094 420.234375 "/>
<path style=" stroke:none;fill-rule:nonzero;fill:rgb(13.729858%,12.159729%,12.548828%);fill-opacity:1;" d="M 441.109375 349.816406 C 431.230469 339.941406 415.160156 339.941406 405.285156 349.816406 C 395.40625 359.695312 395.40625 375.765625 405.285156 385.640625 C 415.160156 395.519531 431.230469 395.519531 441.109375 385.640625 C 450.984375 375.765625 450.984375 359.695312 441.109375 349.816406 M 396.113281 394.8125 C 381.175781 379.878906 381.175781 355.582031 396.113281 340.644531 C 411.046875 325.710938 435.34375 325.710938 450.28125 340.644531 C 465.214844 355.582031 465.214844 379.878906 450.28125 394.8125 C 435.34375 409.746094 411.046875 409.746094 396.113281 394.8125 "/>
</g>
</svg>
